<?xml version="1.0" standalone="no"?>
<!DOCTYPE svg PUBLIC "-//W3C//DTD SVG 20010904//EN"
 "http://www.w3.org/TR/2001/REC-SVG-20010904/DTD/svg10.dtd">
<svg version="1.0" xmlns="http://www.w3.org/2000/svg"
 width="512.000000pt" height="512.000000pt" viewBox="0 0 512.000000 512.000000"
 preserveAspectRatio="xMidYMid meet">

<g transform="translate(0.000000,512.000000) scale(0.100000,-0.100000)"
fill="#000000" stroke="none">
<path d="M2579 4755 c-153 -42 -274 -165 -308 -315 -25 -107 -2 -240 56 -326
35 -51 342 -442 353 -449 4 -2 47 46 96 108 300 380 306 389 326 505 51 299
-232 558 -523 477z m164 -259 c42 -17 93 -76 102 -116 15 -70 -21 -147 -84
-180 -109 -55 -230 12 -238 133 -5 68 25 121 86 154 50 26 87 29 134 9z"/>
<path d="M1522 3308 c-9 -9 -12 -147 -12 -560 l0 -548 -173 0 c-121 0 -177 -4
-185 -12 -9 -9 -12 -104 -12 -365 l0 -353 -113 0 c-75 0 -117 -4 -125 -12 -17
-17 -17 -1119 0 -1136 17 -17 3279 -17 3296 0 17 17 17 909 0 926 -9 9 -79 12
-255 12 l-243 0 0 663 c0 502 -3 666 -12 675 -9 9 -148 12 -565 12 l-553 0 0
343 c0 253 -3 346 -12 355 -17 17 -1019 17 -1036 0z m428 -183 l0 -115 90 0
90 0 0 115 0 115 180 0 180 0 0 -315 0 -315 -183 0 c-129 0 -187 -4 -195 -12
-8 -8 -12 -67 -12 -200 l0 -188 -255 0 -255 0 0 515 0 515 180 0 180 0 0 -115z
m890 -740 l0 -145 90 0 90 0 0 145 0 145 300 0 300 0 0 -625 0 -625 -445 0
-445 0 0 83 c0 51 -5 88 -12 95 -9 9 -84 12 -275 12 l-263 0 0 530 0 530 330
0 330 0 0 -145z m-1250 -375 l0 -110 90 0 90 0 0 110 0 110 150 0 150 0 0
-320 0 -320 -425 0 -425 0 0 320 0 320 185 0 185 0 0 -110z m150 -750 l0 -130
90 0 90 0 0 130 0 130 365 0 365 0 0 -500 0 -500 -840 0 -840 0 0 500 0 500
385 0 385 0 0 -130z m1540 -205 l0 -125 80 0 80 0 0 125 0 125 345 0 345 0 0
-395 0 -395 -695 0 -695 0 0 395 0 395 270 0 270 0 0 -125z"/>
</g>
</svg>
